%TF.GenerationSoftware,KiCad,Pcbnew,(6.0.1)*%
%TF.CreationDate,2022-10-31T14:49:25-07:00*%
%TF.ProjectId,Jianyi_PCB,4a69616e-7969-45f5-9043-422e6b696361,rev?*%
%TF.SameCoordinates,Original*%
%TF.FileFunction,Copper,L2,Bot*%
%TF.FilePolarity,Positive*%
%FSLAX46Y46*%
G04 Gerber Fmt 4.6, Leading zero omitted, Abs format (unit mm)*
G04 Created by KiCad (PCBNEW (6.0.1)) date 2022-10-31 14:49:25*
%MOMM*%
%LPD*%
G01*
G04 APERTURE LIST*
G04 Aperture macros list*
%AMRoundRect*
0 Rectangle with rounded corners*
0 $1 Rounding radius*
0 $2 $3 $4 $5 $6 $7 $8 $9 X,Y pos of 4 corners*
0 Add a 4 corners polygon primitive as box body*
4,1,4,$2,$3,$4,$5,$6,$7,$8,$9,$2,$3,0*
0 Add four circle primitives for the rounded corners*
1,1,$1+$1,$2,$3*
1,1,$1+$1,$4,$5*
1,1,$1+$1,$6,$7*
1,1,$1+$1,$8,$9*
0 Add four rect primitives between the rounded corners*
20,1,$1+$1,$2,$3,$4,$5,0*
20,1,$1+$1,$4,$5,$6,$7,0*
20,1,$1+$1,$6,$7,$8,$9,0*
20,1,$1+$1,$8,$9,$2,$3,0*%
G04 Aperture macros list end*
%TA.AperFunction,ComponentPad*%
%ADD10RoundRect,0.250000X-0.600000X-0.725000X0.600000X-0.725000X0.600000X0.725000X-0.600000X0.725000X0*%
%TD*%
%TA.AperFunction,ComponentPad*%
%ADD11O,1.700000X1.950000*%
%TD*%
%TA.AperFunction,ComponentPad*%
%ADD12C,1.400000*%
%TD*%
%TA.AperFunction,ComponentPad*%
%ADD13O,1.400000X1.400000*%
%TD*%
%TA.AperFunction,ComponentPad*%
%ADD14RoundRect,0.250000X0.650000X1.550000X-0.650000X1.550000X-0.650000X-1.550000X0.650000X-1.550000X0*%
%TD*%
%TA.AperFunction,ComponentPad*%
%ADD15O,1.800000X3.600000*%
%TD*%
%TA.AperFunction,ComponentPad*%
%ADD16R,1.530000X1.530000*%
%TD*%
%TA.AperFunction,ComponentPad*%
%ADD17C,1.530000*%
%TD*%
%TA.AperFunction,ComponentPad*%
%ADD18RoundRect,0.250000X1.550000X-0.650000X1.550000X0.650000X-1.550000X0.650000X-1.550000X-0.650000X0*%
%TD*%
%TA.AperFunction,ComponentPad*%
%ADD19O,3.600000X1.800000*%
%TD*%
%TA.AperFunction,ComponentPad*%
%ADD20R,1.600000X1.600000*%
%TD*%
%TA.AperFunction,ComponentPad*%
%ADD21O,1.600000X1.600000*%
%TD*%
%TA.AperFunction,Conductor*%
%ADD22C,0.250000*%
%TD*%
G04 APERTURE END LIST*
D10*
%TO.P,OutletSensor1,1,Pin_1*%
%TO.N,Net-(5V1-Pad1)*%
X74970000Y-83295000D03*
D11*
%TO.P,OutletSensor1,2,Pin_2*%
%TO.N,Net-(5V1-Pad2)*%
X77470000Y-83295000D03*
%TO.P,OutletSensor1,3,Pin_3*%
%TO.N,Net-(OutletSensor1-Pad3)*%
X79970000Y-83295000D03*
%TD*%
D12*
%TO.P,R4-68k\u03A91,1*%
%TO.N,Net-(R3-33k\u03A91-Pad2)*%
X73660000Y-97155000D03*
D13*
%TO.P,R4-68k\u03A91,2*%
%TO.N,Net-(5V1-Pad2)*%
X81280000Y-97155000D03*
%TD*%
D14*
%TO.P,Motor1,1,Pin_1*%
%TO.N,Net-(A1-Pad3)*%
X132842000Y-61595000D03*
D15*
%TO.P,Motor1,2,Pin_2*%
%TO.N,Net-(A1-Pad4)*%
X127762000Y-61595000D03*
%TO.P,Motor1,3,Pin_3*%
%TO.N,Net-(A1-Pad5)*%
X122682000Y-61595000D03*
%TO.P,Motor1,4,Pin_4*%
%TO.N,Net-(A1-Pad6)*%
X117602000Y-61595000D03*
%TD*%
D16*
%TO.P,U1,1,3V3*%
%TO.N,unconnected-(U1-Pad1)*%
X85500000Y-59556000D03*
D17*
%TO.P,U1,2,EN*%
%TO.N,unconnected-(U1-Pad2)*%
X85500000Y-62096000D03*
%TO.P,U1,3,SENSOR_VP*%
%TO.N,unconnected-(U1-Pad3)*%
X85500000Y-64636000D03*
%TO.P,U1,4,SENSOR_VN*%
%TO.N,unconnected-(U1-Pad4)*%
X85500000Y-67176000D03*
%TO.P,U1,5,IO34*%
%TO.N,Net-(R1-33k\u03A91-Pad2)*%
X85500000Y-69716000D03*
%TO.P,U1,6,IO35*%
%TO.N,Net-(R3-33k\u03A91-Pad2)*%
X85500000Y-72256000D03*
%TO.P,U1,7,IO32*%
%TO.N,unconnected-(U1-Pad7)*%
X85500000Y-74796000D03*
%TO.P,U1,8,IO33*%
%TO.N,unconnected-(U1-Pad8)*%
X85500000Y-77336000D03*
%TO.P,U1,9,IO25*%
%TO.N,unconnected-(U1-Pad9)*%
X85500000Y-79876000D03*
%TO.P,U1,10,IO26*%
%TO.N,unconnected-(U1-Pad10)*%
X85500000Y-82416000D03*
%TO.P,U1,11,IO27*%
%TO.N,unconnected-(U1-Pad11)*%
X85500000Y-84956000D03*
%TO.P,U1,12,IO14*%
%TO.N,unconnected-(U1-Pad12)*%
X85500000Y-87496000D03*
%TO.P,U1,13,IO12*%
%TO.N,unconnected-(U1-Pad13)*%
X85500000Y-90036000D03*
%TO.P,U1,14,GND1*%
%TO.N,Net-(5V1-Pad2)*%
X85500000Y-92576000D03*
%TO.P,U1,15,IO13*%
%TO.N,unconnected-(U1-Pad15)*%
X85500000Y-95116000D03*
%TO.P,U1,16,SD2*%
%TO.N,unconnected-(U1-Pad16)*%
X85500000Y-97656000D03*
%TO.P,U1,17,SD3*%
%TO.N,unconnected-(U1-Pad17)*%
X85500000Y-100196000D03*
%TO.P,U1,18,CMD*%
%TO.N,unconnected-(U1-Pad18)*%
X85500000Y-102736000D03*
%TO.P,U1,19,EXT_5V*%
%TO.N,Net-(5V1-Pad1)*%
X85500000Y-105276000D03*
%TO.P,U1,20,CLK*%
%TO.N,unconnected-(U1-Pad20)*%
X110900000Y-105276000D03*
%TO.P,U1,21,SD0*%
%TO.N,unconnected-(U1-Pad21)*%
X110900000Y-102736000D03*
%TO.P,U1,22,SD1*%
%TO.N,unconnected-(U1-Pad22)*%
X110900000Y-100196000D03*
%TO.P,U1,23,IO15*%
%TO.N,unconnected-(U1-Pad23)*%
X110900000Y-97656000D03*
%TO.P,U1,24,IO2*%
%TO.N,unconnected-(U1-Pad24)*%
X110900000Y-95116000D03*
%TO.P,U1,25,IO0*%
%TO.N,unconnected-(U1-Pad25)*%
X110900000Y-92576000D03*
%TO.P,U1,26,IO4*%
%TO.N,unconnected-(U1-Pad26)*%
X110900000Y-90036000D03*
%TO.P,U1,27,IO16*%
%TO.N,unconnected-(U1-Pad27)*%
X110900000Y-87496000D03*
%TO.P,U1,28,IO17*%
%TO.N,unconnected-(U1-Pad28)*%
X110900000Y-84956000D03*
%TO.P,U1,29,IO5*%
%TO.N,unconnected-(U1-Pad29)*%
X110900000Y-82416000D03*
%TO.P,U1,30,IO18*%
%TO.N,Net-(A1-Pad15)*%
X110900000Y-79876000D03*
%TO.P,U1,31,IO19*%
%TO.N,Net-(A1-Pad16)*%
X110900000Y-77336000D03*
%TO.P,U1,32,GND2*%
%TO.N,unconnected-(U1-Pad32)*%
X110900000Y-74796000D03*
%TO.P,U1,33,IO21*%
%TO.N,unconnected-(U1-Pad33)*%
X110900000Y-72256000D03*
%TO.P,U1,34,RXD0*%
%TO.N,unconnected-(U1-Pad34)*%
X110900000Y-69716000D03*
%TO.P,U1,35,TXD0*%
%TO.N,unconnected-(U1-Pad35)*%
X110900000Y-67176000D03*
%TO.P,U1,36,IO22*%
%TO.N,unconnected-(U1-Pad36)*%
X110900000Y-64636000D03*
%TO.P,U1,37,IO23*%
%TO.N,unconnected-(U1-Pad37)*%
X110900000Y-62096000D03*
%TO.P,U1,38,GND3*%
%TO.N,unconnected-(U1-Pad38)*%
X110900000Y-59556000D03*
%TD*%
D18*
%TO.P,5V1,1,Pin_1*%
%TO.N,Net-(5V1-Pad1)*%
X78105000Y-106507500D03*
D19*
%TO.P,5V1,2,Pin_2*%
%TO.N,Net-(5V1-Pad2)*%
X78105000Y-103007500D03*
%TD*%
D12*
%TO.P,R1-33k\u03A91,1*%
%TO.N,Net-(InletSensor1-Pad3)*%
X73660000Y-69850000D03*
D13*
%TO.P,R1-33k\u03A91,2*%
%TO.N,Net-(R1-33k\u03A91-Pad2)*%
X81280000Y-69850000D03*
%TD*%
D12*
%TO.P,R2-68k\u03A91,1*%
%TO.N,Net-(R1-33k\u03A91-Pad2)*%
X73660000Y-75565000D03*
D13*
%TO.P,R2-68k\u03A91,2*%
%TO.N,Net-(5V1-Pad2)*%
X81280000Y-75565000D03*
%TD*%
D10*
%TO.P,InletSensor1,1,Pin_1*%
%TO.N,Net-(5V1-Pad1)*%
X74970000Y-61070000D03*
D11*
%TO.P,InletSensor1,2,Pin_2*%
%TO.N,Net-(5V1-Pad2)*%
X77470000Y-61070000D03*
%TO.P,InletSensor1,3,Pin_3*%
%TO.N,Net-(InletSensor1-Pad3)*%
X79970000Y-61070000D03*
%TD*%
D14*
%TO.P,24V1,1,Pin_1*%
%TO.N,Net-(24V1-Pad1)*%
X126619000Y-98806000D03*
D15*
%TO.P,24V1,2,Pin_2*%
%TO.N,Net-(24V1-Pad2)*%
X121539000Y-98806000D03*
%TD*%
D20*
%TO.P,A1,1,GND*%
%TO.N,Net-(5V1-Pad2)*%
X134239000Y-73797000D03*
D21*
%TO.P,A1,2,VDD*%
%TO.N,Net-(5V1-Pad1)*%
X131699000Y-73797000D03*
%TO.P,A1,3,1B*%
%TO.N,Net-(A1-Pad3)*%
X129159000Y-73797000D03*
%TO.P,A1,4,1A*%
%TO.N,Net-(A1-Pad4)*%
X126619000Y-73797000D03*
%TO.P,A1,5,2A*%
%TO.N,Net-(A1-Pad5)*%
X124079000Y-73797000D03*
%TO.P,A1,6,2B*%
%TO.N,Net-(A1-Pad6)*%
X121539000Y-73797000D03*
%TO.P,A1,7,GND*%
%TO.N,Net-(24V1-Pad2)*%
X118999000Y-73797000D03*
%TO.P,A1,8,VMOT*%
%TO.N,Net-(24V1-Pad1)*%
X116459000Y-73797000D03*
%TO.P,A1,9,~{ENABLE}*%
%TO.N,unconnected-(A1-Pad9)*%
X116459000Y-86497000D03*
%TO.P,A1,10,MS1*%
%TO.N,Net-(5V1-Pad1)*%
X118999000Y-86497000D03*
%TO.P,A1,11,MS2*%
X121539000Y-86497000D03*
%TO.P,A1,12,MS3*%
X124079000Y-86497000D03*
%TO.P,A1,13,~{RESET}*%
%TO.N,Net-(A1-Pad13)*%
X126619000Y-86497000D03*
%TO.P,A1,14,~{SLEEP}*%
X129159000Y-86497000D03*
%TO.P,A1,15,STEP*%
%TO.N,Net-(A1-Pad15)*%
X131699000Y-86497000D03*
%TO.P,A1,16,DIR*%
%TO.N,Net-(A1-Pad16)*%
X134239000Y-86497000D03*
%TD*%
D12*
%TO.P,R3-33k\u03A91,1*%
%TO.N,Net-(OutletSensor1-Pad3)*%
X73660000Y-91440000D03*
D13*
%TO.P,R3-33k\u03A91,2*%
%TO.N,Net-(R3-33k\u03A91-Pad2)*%
X81280000Y-91440000D03*
%TD*%
D22*
%TO.N,Net-(5V1-Pad1)*%
X118999000Y-86497000D02*
X124079000Y-86497000D01*
X124079000Y-81417000D02*
X131699000Y-73797000D01*
X124079000Y-86497000D02*
X124079000Y-81417000D01*
X117924500Y-69654500D02*
X128709500Y-69654500D01*
X82688700Y-59716800D02*
X83638600Y-60666700D01*
X111476700Y-63206700D02*
X117924500Y-69654500D01*
X128709500Y-69654500D02*
X131699000Y-72644000D01*
X107928700Y-60666700D02*
X110468700Y-63206700D01*
X110468700Y-63206700D02*
X111476700Y-63206700D01*
X76323200Y-59716800D02*
X82688700Y-59716800D01*
X131699000Y-72644000D02*
X131699000Y-73797000D01*
X74970000Y-61070000D02*
X76323200Y-59716800D01*
X83638600Y-60666700D02*
X107928700Y-60666700D01*
%TO.N,Net-(24V1-Pad2)*%
X118999000Y-73797000D02*
X119116000Y-73797000D01*
X113411000Y-96774000D02*
X115443000Y-98806000D01*
X113284000Y-96647000D02*
X113411000Y-96774000D01*
X113411000Y-72390000D02*
X114173000Y-71628000D01*
X114173000Y-71628000D02*
X116830000Y-71628000D01*
X115443000Y-98806000D02*
X121539000Y-98806000D01*
X116830000Y-71628000D02*
X118999000Y-73797000D01*
X119116000Y-73797000D02*
X119126000Y-73787000D01*
X113411000Y-96774000D02*
X113411000Y-72390000D01*
X119126000Y-73787000D02*
X119126000Y-73279000D01*
%TO.N,Net-(24V1-Pad1)*%
X117094000Y-94488000D02*
X123063000Y-94488000D01*
X116459000Y-81153000D02*
X114300000Y-83312000D01*
X116459000Y-73797000D02*
X116459000Y-81153000D01*
X123063000Y-94488000D02*
X126619000Y-98044000D01*
X114300000Y-83312000D02*
X114300000Y-91694000D01*
X114300000Y-91694000D02*
X117094000Y-94488000D01*
X126619000Y-98044000D02*
X126619000Y-98806000D01*
%TO.N,Net-(InletSensor1-Pad3)*%
X79970000Y-63540000D02*
X79970000Y-61070000D01*
X73660000Y-69850000D02*
X79970000Y-63540000D01*
%TO.N,Net-(OutletSensor1-Pad3)*%
X73660000Y-91440000D02*
X73660000Y-89605000D01*
X73660000Y-89605000D02*
X79970000Y-83295000D01*
%TO.N,Net-(R1-33k\u03A91-Pad2)*%
X76835000Y-72390000D02*
X78740000Y-72390000D01*
X78740000Y-72390000D02*
X81280000Y-69850000D01*
X73660000Y-75565000D02*
X76835000Y-72390000D01*
X85500000Y-69716000D02*
X81414000Y-69716000D01*
X81414000Y-69716000D02*
X81280000Y-69850000D01*
%TO.N,Net-(A1-Pad13)*%
X126619000Y-86497000D02*
X129159000Y-86497000D01*
%TO.N,Net-(R3-33k\u03A91-Pad2)*%
X85500000Y-73250000D02*
X83185000Y-75565000D01*
X85500000Y-72256000D02*
X85500000Y-73250000D01*
X73660000Y-97155000D02*
X76835000Y-93980000D01*
X78740000Y-93980000D02*
X81280000Y-91440000D01*
X83185000Y-89535000D02*
X81280000Y-91440000D01*
X76835000Y-93980000D02*
X78740000Y-93980000D01*
X83185000Y-75565000D02*
X83185000Y-89535000D01*
%TD*%
M02*
