%TF.GenerationSoftware,KiCad,Pcbnew,(6.0.1)*%
%TF.CreationDate,2022-10-31T14:49:25-07:00*%
%TF.ProjectId,Jianyi_PCB,4a69616e-7969-45f5-9043-422e6b696361,rev?*%
%TF.SameCoordinates,Original*%
%TF.FileFunction,Soldermask,Bot*%
%TF.FilePolarity,Negative*%
%FSLAX46Y46*%
G04 Gerber Fmt 4.6, Leading zero omitted, Abs format (unit mm)*
G04 Created by KiCad (PCBNEW (6.0.1)) date 2022-10-31 14:49:25*
%MOMM*%
%LPD*%
G01*
G04 APERTURE LIST*
G04 Aperture macros list*
%AMRoundRect*
0 Rectangle with rounded corners*
0 $1 Rounding radius*
0 $2 $3 $4 $5 $6 $7 $8 $9 X,Y pos of 4 corners*
0 Add a 4 corners polygon primitive as box body*
4,1,4,$2,$3,$4,$5,$6,$7,$8,$9,$2,$3,0*
0 Add four circle primitives for the rounded corners*
1,1,$1+$1,$2,$3*
1,1,$1+$1,$4,$5*
1,1,$1+$1,$6,$7*
1,1,$1+$1,$8,$9*
0 Add four rect primitives between the rounded corners*
20,1,$1+$1,$2,$3,$4,$5,0*
20,1,$1+$1,$4,$5,$6,$7,0*
20,1,$1+$1,$6,$7,$8,$9,0*
20,1,$1+$1,$8,$9,$2,$3,0*%
G04 Aperture macros list end*
%ADD10C,3.200000*%
%ADD11RoundRect,0.250000X-0.600000X-0.725000X0.600000X-0.725000X0.600000X0.725000X-0.600000X0.725000X0*%
%ADD12O,1.700000X1.950000*%
%ADD13C,1.400000*%
%ADD14O,1.400000X1.400000*%
%ADD15RoundRect,0.250000X0.650000X1.550000X-0.650000X1.550000X-0.650000X-1.550000X0.650000X-1.550000X0*%
%ADD16O,1.800000X3.600000*%
%ADD17R,1.530000X1.530000*%
%ADD18C,1.530000*%
%ADD19RoundRect,0.250000X1.550000X-0.650000X1.550000X0.650000X-1.550000X0.650000X-1.550000X-0.650000X0*%
%ADD20O,3.600000X1.800000*%
%ADD21C,1.200000*%
%ADD22R,1.600000X1.600000*%
%ADD23O,1.600000X1.600000*%
G04 APERTURE END LIST*
D10*
%TO.C,REF\u002A\u002A*%
X98704400Y-100711000D03*
%TD*%
%TO.C,REF\u002A\u002A*%
X98044000Y-66014600D03*
%TD*%
D11*
%TO.C,OutletSensor1*%
X74970000Y-83295000D03*
D12*
X77470000Y-83295000D03*
X79970000Y-83295000D03*
%TD*%
D13*
%TO.C,R4-68k\u03A91*%
X73660000Y-97155000D03*
D14*
X81280000Y-97155000D03*
%TD*%
D15*
%TO.C,Motor1*%
X132842000Y-61595000D03*
D16*
X127762000Y-61595000D03*
X122682000Y-61595000D03*
X117602000Y-61595000D03*
%TD*%
D17*
%TO.C,U1*%
X85500000Y-59556000D03*
D18*
X85500000Y-62096000D03*
X85500000Y-64636000D03*
X85500000Y-67176000D03*
X85500000Y-69716000D03*
X85500000Y-72256000D03*
X85500000Y-74796000D03*
X85500000Y-77336000D03*
X85500000Y-79876000D03*
X85500000Y-82416000D03*
X85500000Y-84956000D03*
X85500000Y-87496000D03*
X85500000Y-90036000D03*
X85500000Y-92576000D03*
X85500000Y-95116000D03*
X85500000Y-97656000D03*
X85500000Y-100196000D03*
X85500000Y-102736000D03*
X85500000Y-105276000D03*
X110900000Y-105276000D03*
X110900000Y-102736000D03*
X110900000Y-100196000D03*
X110900000Y-97656000D03*
X110900000Y-95116000D03*
X110900000Y-92576000D03*
X110900000Y-90036000D03*
X110900000Y-87496000D03*
X110900000Y-84956000D03*
X110900000Y-82416000D03*
X110900000Y-79876000D03*
X110900000Y-77336000D03*
X110900000Y-74796000D03*
X110900000Y-72256000D03*
X110900000Y-69716000D03*
X110900000Y-67176000D03*
X110900000Y-64636000D03*
X110900000Y-62096000D03*
X110900000Y-59556000D03*
%TD*%
D19*
%TO.C,5V1*%
X78105000Y-106507500D03*
D20*
X78105000Y-103007500D03*
%TD*%
D13*
%TO.C,R1-33k\u03A91*%
X73660000Y-69850000D03*
D14*
X81280000Y-69850000D03*
%TD*%
D13*
%TO.C,R2-68k\u03A91*%
X73660000Y-75565000D03*
D14*
X81280000Y-75565000D03*
%TD*%
D21*
%TO.C,InletSensor1*%
X73370000Y-63070000D03*
D11*
X74970000Y-61070000D03*
D12*
X77470000Y-61070000D03*
X79970000Y-61070000D03*
%TD*%
D15*
%TO.C,24V1*%
X126619000Y-98806000D03*
D16*
X121539000Y-98806000D03*
%TD*%
D22*
%TO.C,A1*%
X134239000Y-73797000D03*
D23*
X131699000Y-73797000D03*
X129159000Y-73797000D03*
X126619000Y-73797000D03*
X124079000Y-73797000D03*
X121539000Y-73797000D03*
X118999000Y-73797000D03*
X116459000Y-73797000D03*
X116459000Y-86497000D03*
X118999000Y-86497000D03*
X121539000Y-86497000D03*
X124079000Y-86497000D03*
X126619000Y-86497000D03*
X129159000Y-86497000D03*
X131699000Y-86497000D03*
X134239000Y-86497000D03*
%TD*%
D13*
%TO.C,R3-33k\u03A91*%
X73660000Y-91440000D03*
D14*
X81280000Y-91440000D03*
%TD*%
M02*
