M48
; DRILL file {KiCad (6.0.1)} date Mon Oct 31 14:49:27 2022
; FORMAT={-:-/ absolute / inch / decimal}
; #@! TF.CreationDate,2022-10-31T14:49:27-07:00
; #@! TF.GenerationSoftware,Kicad,Pcbnew,(6.0.1)
; #@! TF.FileFunction,Plated,1,2,PTH
FMAT,2
INCH
; #@! TA.AperFunction,Plated,PTH,ComponentDrill
T1C0.0276
; #@! TA.AperFunction,Plated,PTH,ComponentDrill
T2C0.0315
; #@! TA.AperFunction,Plated,PTH,ComponentDrill
T3C0.0374
; #@! TA.AperFunction,Plated,PTH,ComponentDrill
T4C0.0402
; #@! TA.AperFunction,Plated,PTH,ComponentDrill
T5C0.0472
%
G90
G05
T1
X2.9Y-2.75
X2.9Y-2.975
X2.9Y-3.6
X2.9Y-3.825
X3.2Y-2.75
X3.2Y-2.975
X3.2Y-3.6
X3.2Y-3.825
T2
X4.585Y-2.9054
X4.585Y-3.4054
X4.685Y-2.9054
X4.685Y-3.4054
X4.785Y-2.9054
X4.785Y-3.4054
X4.885Y-2.9054
X4.885Y-3.4054
X4.985Y-2.9054
X4.985Y-3.4054
X5.085Y-2.9054
X5.085Y-3.4054
X5.185Y-2.9054
X5.185Y-3.4054
X5.285Y-2.9054
X5.285Y-3.4054
T3
X2.9516Y-2.4043
X2.9516Y-3.2793
X3.05Y-2.4043
X3.05Y-3.2793
X3.1484Y-2.4043
X3.1484Y-3.2793
T4
X3.3661Y-2.3447
X3.3661Y-2.4447
X3.3661Y-2.5447
X3.3661Y-2.6447
X3.3661Y-2.7447
X3.3661Y-2.8447
X3.3661Y-2.9447
X3.3661Y-3.0447
X3.3661Y-3.1447
X3.3661Y-3.2447
X3.3661Y-3.3447
X3.3661Y-3.4447
X3.3661Y-3.5447
X3.3661Y-3.6447
X3.3661Y-3.7447
X3.3661Y-3.8447
X3.3661Y-3.9447
X3.3661Y-4.0447
X3.3661Y-4.1447
X4.3661Y-2.3447
X4.3661Y-2.4447
X4.3661Y-2.5447
X4.3661Y-2.6447
X4.3661Y-2.7447
X4.3661Y-2.8447
X4.3661Y-2.9447
X4.3661Y-3.0447
X4.3661Y-3.1447
X4.3661Y-3.2447
X4.3661Y-3.3447
X4.3661Y-3.4447
X4.3661Y-3.5447
X4.3661Y-3.6447
X4.3661Y-3.7447
X4.3661Y-3.8447
X4.3661Y-3.9447
X4.3661Y-4.0447
X4.3661Y-4.1447
T5
X3.075Y-4.0554
X3.075Y-4.1932
X4.63Y-2.425
X4.785Y-3.89
X4.83Y-2.425
X4.985Y-3.89
X5.03Y-2.425
X5.23Y-2.425
T0
M30
